<svg width="150" height="90" viewBox="0 0 1000 503" fill="none" xmlns="http://www.w3.org/2000/svg">
<path d="M870 435.7H98.9C92 435.7 86.5 430.1 86.5 423.3V318.6C86.5 311.7 92.1 306.2 98.9 306.2H870C876.9 306.2 882.4 311.8 882.4 318.6V423.3C882.4 430.1 876.9 435.7 870 435.7Z" fill="url(#paint0_linear)"/>
<path d="M817.8 163L879.9 276.1H835.3L793.5 190.3L752 276.1H709.3L769.9 164.6L714.1 66.6H758.7L794.2 139L831.2 66.6H873.9L817.8 163Z" fill="#EC854C"/>
<path d="M241.1 276.1H189.3L117.4 106.6C119.2 121.5 120.5 135.1 121.3 147.2C122.3 159.3 122.8 173.8 122.8 190.5V276H86.5V66.6H137.1L210.2 236.3C209 228.2 207.8 217.6 206.6 204.5C205.4 191.2 204.8 177.9 204.8 164.8V66.6H241.2L241.1 276.1ZM488.7 276.1H449.6L444.1 188.5C442.3 157.2 441.4 132.3 441.4 113.9V103L403.2 253.3H365.3L324.7 102.7C325.1 116 325.3 126.1 325.3 133C325.3 151.4 324.7 170.3 323.5 189.7L318.4 276.1H279.5L296.2 66.6H347.7L385 213.3L420.2 66.6H472.3L488.7 276.1ZM604.6 62.1C623.4 62.1 639.7 66.3 653.4 74.8C667.1 83.3 677.7 95.7 684.9 112.1C692.4 128.5 696.1 148.2 696.1 171.2C696.1 194 692.4 213.6 684.9 230C677.4 246.4 666.8 258.9 653.1 267.6C639.4 276.3 623.2 280.6 604.6 280.6C585.8 280.6 569.5 276.4 555.8 267.9C542.1 259.4 531.5 247 524 230.6C516.5 214.2 512.8 194.5 512.8 171.5C512.8 148.9 516.5 129.4 524 113C531.5 96.4 542.1 83.8 555.8 75.1C569.7 66.4 586 62.1 604.6 62.1ZM604.6 92.7C588.4 92.7 576.1 99.1 567.6 111.8C559.1 124.3 554.9 144.2 554.9 171.5C554.9 223.8 571.5 250 604.6 250C620.8 250 633 243.7 641.3 231.2C649.8 218.7 654 198.7 654 171.2C654 143.9 649.8 124 641.3 111.5C633 98.9 620.8 92.7 604.6 92.7Z" fill="#333333"/>
<path d="M168.5 421.9L208.8 326.5H224.9L266.1 421.9H247.3L238.7 401H193.4L185.1 421.9H168.5ZM200.6 383.8H231.8L216.4 345L200.6 383.8Z" fill="white"/>
<path d="M341.8 421.4V403.9H305.3C299.7 403.9 295.4 402.3 292.7 399.2C290.3 396.4 289 391.6 289 385.1V344C289 337.5 290.3 332.7 292.7 329.8C295.5 327 299.8 325.4 305.3 325.4H350.4H360.7H396.1C401.9 325.4 406.1 326.8 408.7 329.9C411.2 332.9 412.5 337.7 412.5 344V385.1C412.5 391.7 411.2 396.5 408.7 399.5C406 402.3 401.8 403.9 396.1 403.9H360.3V421.4H341.8ZM306.7 343.9C305.7 345 305.1 347 305.1 349.7V378C305.1 380.8 305.7 382.8 306.7 383.9C308 385 309.9 385.7 312.6 385.7H341.7V342H312.6C309.8 342.2 307.8 342.8 306.7 343.9ZM360.3 385.9H388.7C391.7 385.9 393.6 385.3 394.6 384.2C395.6 383.1 396.2 381 396.2 378.3V350.1C396.2 347.3 395.6 345.3 394.6 344.2C393.5 342.9 391.4 342.2 388.7 342.2H360.3V385.9Z" fill="white"/>
<path d="M512.1 421.9V370.4C512.1 367.7 512.2 365.5 512.4 363.5C512.4 362.7 512.4 361.4 512.5 359.5C512.6 357.7 512.8 356.3 512.8 355.3C512.1 356.3 511.2 357.4 510.1 359C509.4 360 508.3 361.3 506.7 363.1L454.2 421.9H443V326.7H458V376.8C458 378.8 458 380.5 457.9 381.9C457.9 383 457.9 384.7 457.8 387C457.7 389.3 457.5 391.4 457.5 393.3C458.9 391.3 460 389.5 461 388.1C462 386.8 463.5 385.1 465.7 383L516.1 326.9H527.4V422.1L512.1 421.9Z" fill="white"/>
<path d="M574.5 326.4V404H608V326.4H626.8V404H659.5V326.4H676V399.3C676 407.9 674.9 413.8 672.5 416.9C670 420.1 665.3 421.7 658.4 421.7H585.9H575.6C568.7 421.7 563.9 420.1 561.5 416.9C559.1 413.8 557.8 407.9 557.8 399.3V326.4H574.5Z" fill="white"/>
<path d="M702.8 421.9L743.1 326.5H759.2L800.4 421.9H781.6L773 401H727.7L719.4 421.9H702.8ZM734.9 383.8H766L750.7 345L734.9 383.8Z" fill="white"/>
<defs>
<linearGradient id="paint0_linear" x1="712.202" y1="143.179" x2="256.724" y2="598.657" gradientUnits="userSpaceOnUse">
<stop stop-color="#FEDA7A"/>
<stop offset="0.5" stop-color="#F72F2F"/>
<stop offset="1" stop-color="#7166CF"/>
</linearGradient>
</defs>
</svg>
