<svg width="197" height="77" viewBox="0 0 197 77" fill="none" xmlns="http://www.w3.org/2000/svg">
<g clip-path="url(#clip0)">
<path d="M187.96 0H8.94C4.00257 0 0 4.00257 0 8.94V67.83C0 72.7674 4.00257 76.77 8.94 76.77H187.96C192.897 76.77 196.9 72.7674 196.9 67.83V8.94C196.9 4.00257 192.897 0 187.96 0Z" fill="#333333"/>
<path d="M47.2 61.15H36.04L20.56 24.66C20.96 27.88 21.24 30.79 21.41 33.41C21.58 36.03 21.74 39.13 21.74 42.74V61.15H13.9V16.04H24.79L40.52 52.6C40.26 50.86 40 48.5767 39.74 45.75C39.48 42.9234 39.35 40.07 39.35 37.19V16.04H47.18V61.15H47.2ZM100.54 61.15H92.11L90.94 42.31C90.5467 35.57 90.35 30.2167 90.35 26.25V23.87L82.12 56.31H73.96L65.21 23.81C65.3034 26.6834 65.35 28.86 65.35 30.34C65.35 34.3 65.2167 38.37 64.95 42.55L63.84 61.15H55.49L59.08 16.04H70.18L78.18 47.64L85.79 16.04H97.02L100.54 61.15ZM125.54 15.06C129.232 14.9634 132.875 15.9134 136.05 17.8C139.08 19.7074 141.45 22.5003 142.84 25.8C144.549 29.8211 145.374 34.1624 145.26 38.53C145.359 42.8917 144.517 47.2235 142.79 51.23C141.357 54.5477 138.969 57.3638 135.93 59.32C132.796 61.248 129.169 62.2241 125.49 62.13C121.795 62.2264 118.148 61.2765 114.97 59.39C111.935 57.4716 109.548 54.684 108.12 51.39C106.411 47.369 105.586 43.0277 105.7 38.66C105.592 34.3349 106.417 30.0373 108.12 26.06C109.543 22.7178 111.927 19.874 114.97 17.89C118.142 15.9628 121.799 14.981 125.51 15.06H125.54ZM125.54 21.65C123.962 21.5744 122.392 21.9152 120.988 22.6384C119.584 23.3616 118.395 24.4417 117.54 25.77C115.707 28.4367 114.793 32.7234 114.8 38.63C114.8 49.9034 118.37 55.54 125.51 55.54C127.062 55.6238 128.608 55.2984 129.995 54.5964C131.381 53.8944 132.559 52.8404 133.41 51.54C135.237 48.84 136.15 44.5334 136.15 38.62C136.15 32.7067 135.237 28.4167 133.41 25.75C132.571 24.4312 131.399 23.3574 130.012 22.6374C128.624 21.9174 127.071 21.5768 125.51 21.65H125.54Z" fill="white"/>
<path d="M171.44 36.7999L184.79 61.1599H175.19L166.19 42.6799L157.25 61.1599H148.04L161.1 37.1599L149.1 16.0699H158.69L166.33 31.6699L174.33 16.0699H183.54L171.44 36.7999Z" fill="#EC854C"/>
</g>
<defs>
<clipPath id="clip0">
<rect width="196.9" height="76.77" fill="white"/>
</clipPath>
</defs>
</svg>
