<svg width="140" height="87" viewBox="0 0 1000 497" fill="none" xmlns="http://www.w3.org/2000/svg">
<path d="M870 435.7H98.9C92 435.7 86.5 430.1 86.5 423.3V318.6C86.5 311.7 92.1 306.2 98.9 306.2H870C876.9 306.2 882.4 311.8 882.4 318.6V423.3C882.4 430.1 876.9 435.7 870 435.7Z" fill="url(#paint0_linear)"/>
<path d="M817.8 163L879.9 276.1H835.3L793.5 190.3L752 276.1H709.3L769.9 164.6L714.1 66.6H758.7L794.2 139L831.2 66.6H873.9L817.8 163Z" fill="#EC854C"/>
<path d="M241.1 276.1H189.3L117.4 106.6C119.2 121.5 120.5 135.1 121.3 147.2C122.3 159.3 122.8 173.8 122.8 190.5V276H86.5V66.6H137.1L210.2 236.3C209 228.2 207.8 217.6 206.6 204.5C205.4 191.2 204.8 177.9 204.8 164.8V66.6H241.2L241.1 276.1ZM488.7 276.1H449.6L444.1 188.5C442.3 157.2 441.4 132.3 441.4 113.9V103L403.2 253.3H365.3L324.7 102.7C325.1 116 325.3 126.1 325.3 133C325.3 151.4 324.7 170.3 323.5 189.7L318.4 276.1H279.5L296.2 66.6H347.7L385 213.3L420.2 66.6H472.3L488.7 276.1ZM604.6 62.1C623.4 62.1 639.7 66.3 653.4 74.8C667.1 83.3 677.7 95.7 684.9 112.1C692.4 128.5 696.1 148.2 696.1 171.2C696.1 194 692.4 213.6 684.9 230C677.4 246.4 666.8 258.9 653.1 267.6C639.4 276.3 623.2 280.6 604.6 280.6C585.8 280.6 569.5 276.4 555.8 267.9C542.1 259.4 531.5 247 524 230.6C516.5 214.2 512.8 194.5 512.8 171.5C512.8 148.9 516.5 129.4 524 113C531.5 96.4 542.1 83.8 555.8 75.1C569.7 66.4 586 62.1 604.6 62.1ZM604.6 92.7C588.4 92.7 576.1 99.1 567.6 111.8C559.1 124.3 554.9 144.2 554.9 171.5C554.9 223.8 571.5 250 604.6 250C620.8 250 633 243.7 641.3 231.2C649.8 218.7 654 198.7 654 171.2C654 143.9 649.8 124 641.3 111.5C633 98.9 620.8 92.7 604.6 92.7Z" fill="#333333"/>
<path d="M131.7 407.3V353.7V337.1H178.1H191.1V407.3H178.9V350.3H144V407.3H131.7V407.3Z" fill="white"/>
<path d="M241.5 337.1L271.9 407.3H257.9L236.6 356.5L216.3 407.3H204L233 337.1H241.5Z" fill="white"/>
<path d="M282.8 407.3L312.5 337.1H324.4L354.6 407.3H340.8L334.5 391.9H301.1L295 407.3H282.8ZM306.4 379.3H329.5L318 350.7L306.4 379.3Z" fill="white"/>
<path d="M393.6 349.6V407.3H381.4V349.6H357.2V337.1H417.9V349.6H393.6Z" fill="white"/>
<path d="M469.7 407.1V394.3H443C438.8 394.3 435.8 393.2 433.8 391C432 388.8 431.1 385.4 431.1 380.6V350.7C431.1 345.9 432 342.4 433.8 340.2C435.8 338.1 438.9 337.1 443 337.1H476H483.6H509.5C513.7 337.1 516.7 338.2 518.7 340.4C520.6 342.6 521.5 346 521.5 350.8V380.7C521.5 385.5 520.6 389 518.7 391.2C516.7 393.3 513.7 394.3 509.5 394.3H483.2V407.1H469.7ZM444 350.5C443.3 351.3 442.9 352.7 442.9 354.8V375.5C442.9 377.5 443.3 379 444 379.8C444.9 380.7 446.4 381.2 448.4 381.2H469.7V349.2H448.4C446.3 349.2 444.9 349.6 444 350.5ZM483.2 381.2H504C506.1 381.2 507.6 380.8 508.4 379.9C509.2 379.1 509.5 377.6 509.5 375.6V354.9C509.5 352.9 509.1 351.4 508.4 350.6C507.5 349.7 506.1 349.2 504 349.2H483.2V381.2Z" fill="white"/>
<path d="M540 353.7C540 347.3 540.9 343 542.7 340.6C544.6 338.3 548.1 337.1 553.1 337.1H591.8C596.9 337.1 600.4 338.3 602.1 340.6C604 342.9 604.9 347.3 604.9 353.7V390.7C604.9 397.1 604 401.4 602.1 403.8C600.3 406.1 596.9 407.3 591.8 407.3H553.1C548.1 407.3 544.6 406.1 542.7 403.8C540.9 401.5 540 397.1 540 390.7V353.7ZM552.3 394.1H592.7V349.6H552.3V394.1Z" fill="white"/>
<path d="M626.2 407.3V337.1H671.2C675.4 337.1 678.4 338.1 680.4 340.2C682.2 342.4 683.1 345.9 683.1 350.7V366.3C683.1 371 682.2 374.5 680.4 376.7C678.4 378.9 675.4 380 671.2 380H638.3V407.4H626.2V407.3ZM665.8 349.2H638.3V367.9H665.8C667.9 367.9 669.4 367.5 670.2 366.6C671 365.8 671.3 364.4 671.3 362.3V354.8C671.3 352.7 670.9 351.3 670.2 350.5C669.4 349.6 668 349.2 665.8 349.2Z" fill="white"/>
<path d="M701.2 407.3V337.1H711.1L735.9 379.5L760.2 337.1H770V407.3H758.7V363.9C758.7 362.7 758.7 361.6 758.8 360.8C758.9 359.7 759 358.3 759.1 356.5C758.7 357.3 758.4 358.2 758.1 359C757.8 359.8 757.6 360.5 757.3 361C756.8 362.4 756.3 363.3 756 363.9L736.2 399H733.7L714 363.6C713.4 362.5 712.8 361.3 712.1 359.8C711.5 358.5 711.1 357.3 710.8 356.4C710.9 357.9 711 359.2 711.1 360.5V363.9V407.3H701.2Z" fill="white"/>
<path d="M786.7 407.3L816.4 337.1H828.3L858.5 407.3H844.7L838.4 391.9H805L798.9 407.3H786.7ZM810.3 379.3H833.4L822 350.7L810.3 379.3Z" fill="white"/>
<defs>
<linearGradient id="paint0_linear" x1="712.202" y1="143.179" x2="256.724" y2="598.657" gradientUnits="userSpaceOnUse">
<stop stop-color="#FEDA7A"/>
<stop offset="0.5" stop-color="#F72F2F"/>
<stop offset="1" stop-color="#7166CF"/>
</linearGradient>
</defs>
</svg>
